<?xml version="1.0" standalone="no"?><!DOCTYPE svg PUBLIC "-//W3C//DTD SVG 1.1//EN" "http://www.w3.org/Graphics/SVG/1.1/DTD/svg11.dtd"><svg t="1587218487178" class="icon" viewBox="0 0 1146 1024" version="1.1" xmlns="http://www.w3.org/2000/svg" p-id="855" xmlns:xlink="http://www.w3.org/1999/xlink" width="223.828125" height="200"><defs><style type="text/css"></style></defs><path d="M865.42826412 225.57465257H315.49159704C290.28616646 225.57465257 269.66354145 246.19727758 269.66354145 271.40270816v366.62444473c0 25.20543057 20.62262501 45.82805561 45.82805559 45.82805558h229.14027795v68.74208337H430.061736c-12.60271529 0-22.9140278 10.31131251-22.91402779 22.9140278v22.91402781h366.62444473v-22.91402781c0-12.60271529-10.31131251-22.9140278-22.91402779-22.9140278h-114.57013899v-68.74208337h229.14027796c25.20543057 0 45.82805561-20.62262501 45.82805558-45.8280556V271.40270816c0-25.20543057-20.62262501-45.82805561-45.82805558-45.82805561zM559.23956771 628.86154176c-0.57285069-17.18552085 12.88914063-31.79321357 30.07466147-32.36606426s31.79321357 13.46199133 32.36606426 30.93393752v1.71855208c-0.57285069 17.18552085-15.18054341 27.49683337-32.36606426 26.92398266-16.3262448-0.57285069-29.50181078-9.73846182-30.07466147-26.06470661M321.22010399 277.1312151h538.47965318v295.01810787H321.22010399V277.1312151z" fill="#ffffff" p-id="856"></path></svg>