<?xml version="1.0" standalone="no"?><!DOCTYPE svg PUBLIC "-//W3C//DTD SVG 1.1//EN" "http://www.w3.org/Graphics/SVG/1.1/DTD/svg11.dtd"><svg t="1574595248767" class="icon" viewBox="0 0 1024 1024" version="1.1" xmlns="http://www.w3.org/2000/svg" p-id="842" xmlns:xlink="http://www.w3.org/1999/xlink" width="2000" height="2000"><defs><style type="text/css"></style></defs><path d="M733.90244369 457.79903781H708.64330837v-45.11031395a56.64732555 56.64732555 0 0 0-16.59141204-40.05703237L602.33419107 282.91174853a56.66410828 56.66410828 0 0 0-40.05927007-16.59141202H348.13001694c-18.02633588 0-32.77276588 14.74698942-32.77276587 32.77276586v134.60760598h24.58167225V299.09310238c0-4.43903346 3.75261958-8.19165307 8.19165304-8.19165305H562.27548042c2.38482668 0.01957986 4.76014313 0.30712405 7.07951714 0.85088468V405.6086473h113.8563133c0.51690825 2.30147242 0.85256294 4.66168441 0.85256294 7.07951715v45.11031395H290.09755631c-15.90443873 0-28.91833103 13.01333287-28.91833103 28.91833102V630.53086449c0 15.90443873 13.01333287 28.91833103 28.91833103 28.91833102h393.96575807v65.70496773c0 4.44239001-3.75261958 8.19333133-8.19333132 8.19333132H348.13001694c-4.43903346 0-8.19165307-3.75094132-8.19165306-8.19333132v-41.60495998H315.35669163v41.60495998c0 18.02801415 14.74698942 32.77500357 32.77276588 32.77500357h327.74052555c18.02633588 0 32.77276588-14.74698942 32.77276587-32.77500357v-65.70440831h25.25913533c15.906117 0 28.91833103-13.01333287 28.91833101-28.91833103V486.71736884c0.00055943-15.90499817-13.01109518-28.91833103-28.91777158-28.91833103z m-139.96633331-76.76982505V309.27910379l71.75010894 71.75010897H593.93611038zM409.64769223 609.79971111h-21.93223776v-43.86447558h-29.24279724v43.8644756h-21.93223778V507.44908164h21.93223778v36.55391611h29.24279724v-36.55391611h21.93223778v102.35062947zM497.3766434 529.38131942h-29.24111897v80.41783227h-21.93391606V529.38131942h-29.24279724v-21.93223777H497.3766434v21.93223777z m109.66454547 80.41839169h-21.93223778V544.00299776l-21.93391606 43.86447556h-14.62167835l-21.93223778-43.86447556v65.79671335h-21.93223777V507.44908164h21.93223777l29.24279725 51.17503503 29.24447552-51.17503503h21.93223778v102.35062947z m14.62167834 0V507.44908164h21.93223777v80.41783227h40.46876882v21.93223778H621.66286721z" fill="#FFFFFF" p-id="843"></path></svg>