<?xml version="1.0" standalone="no"?><!DOCTYPE svg PUBLIC "-//W3C//DTD SVG 1.1//EN" "http://www.w3.org/Graphics/SVG/1.1/DTD/svg11.dtd"><svg t="1574504440767" class="icon" viewBox="0 0 1024 1024" version="1.1" xmlns="http://www.w3.org/2000/svg" p-id="1193" xmlns:xlink="http://www.w3.org/1999/xlink" width="2000" height="2000"><defs><style type="text/css"></style></defs><path d="M512 473.62683539c47.34129889 0 91.60576298-4.28295403 132.75870798-12.88410583 41.13448398-8.58380963 73.6342507-21.25813126 97.40979221-38.04086644v50.92497227c0 13.81107223-10.31466905 26.59000624-30.89142126 38.37316461s-48.5468587 21.15351887-83.913676 28.02381124c-35.3483563 6.88763453-73.82613329 10.34935338-115.36340293 10.34935337-41.57251337 0-80.03294821-3.46171885-115.39864667-10.34935337-35.34891573-6.90553611-63.30223948-16.24121228-83.91367602-28.02381124-20.57619278-11.78315839-30.87351968-24.56209239-30.87351967-38.37316461v-50.92497227c23.75819937 16.78273521 56.23950509 29.45705683 97.39245008 38.04086644C420.39423702 469.34388136 464.6240168 473.62683539 512 473.62683539z m0 230.18584235c47.34129889 0 91.60576298-4.31819777 132.75870798-12.9020074 41.13448398-8.6011518 73.6342507-21.274914 97.40979221-38.05764918v50.95965657c0 13.77582848-10.31466905 26.57266407-30.89142126 38.33792089-20.57563337 11.78315839-48.5468587 21.17086103-83.913676 28.02381123C592.01560604 777.06260381 553.53726961 780.52376322 512 780.52376322c-41.57251337 0-80.03294821-3.46171885-115.39864667-10.34935337-35.38360005-6.85295021-63.33748323-16.24065285-83.91367602-28.02381123-20.57619278-11.7652568-30.87351968-24.56209239-30.87351967-38.33792088v-50.96021601c23.75819937 16.78273521 56.23950509 29.45761626 97.39245008 38.05876804C420.39423702 699.49392056 464.6240168 703.81267773 512 703.81267773z m0-115.0842501c47.34129889 0 91.60576298-4.28295403 132.75870798-12.88410581 41.13448398-8.6011518 73.6342507-21.27547342 97.40979221-38.0582086v50.94231441c0 13.81107223-10.31466905 26.59056565-30.89142126 38.37316462s-48.5468587 21.11827513-83.913676 28.02381123C592.01560604 662.01303802 553.53726961 665.4389537 512 665.4389537c-41.57251337 0-80.03294821-3.46115943-115.39864667-10.34935338-35.38360005-6.87029237-63.33748323-16.24065285-83.91367602-28.0232518s-30.87351968-24.56265182-30.87351967-38.35582246v-50.92497227c23.75819937 16.78273521 56.23950509 29.45705683 97.39245008 38.05820862C420.39423702 584.44547363 464.6240168 588.72842765 512 588.72842765zM512 243.47623678c41.53726961 0 80.01504662 3.46171885 115.39864667 10.34935337 35.36625789 6.87029237 63.33748323 16.24065285 83.91367602 28.02381123s30.87351968 24.56209239 30.87351967 38.35526304v38.37316461c0 13.79317064-10.2973269 26.59000624-30.87351967 38.37316461s-48.54741811 21.10093297-83.91367602 28.02381125C592.01504662 431.86243941 553.53726961 435.28891451 512 435.28891451c-41.57251337 0-80.03294821-3.46171885-115.39864667-10.34935337-35.38360005-6.88819395-63.33748323-16.24065285-83.91367602-28.02381123s-30.87351968-24.56209239-30.87351967-38.37316462v-38.33736144c0-13.79373007 10.29676748-26.57266407 30.87351967-38.35582247s48.53007596-21.15351887 83.91367602-28.02381124C431.96761122 246.93739619 470.42804606 243.47623678 512 243.47623678z" fill="#ffffff" p-id="1194"></path></svg>