<?xml version="1.0" standalone="no"?><!DOCTYPE svg PUBLIC "-//W3C//DTD SVG 1.1//EN" "http://www.w3.org/Graphics/SVG/1.1/DTD/svg11.dtd"><svg t="1575554051293" class="icon" viewBox="0 0 1024 1024" version="1.1" xmlns="http://www.w3.org/2000/svg" p-id="913" xmlns:xlink="http://www.w3.org/1999/xlink" width="512" height="512"><defs><style type="text/css"></style></defs><path d="M759.38527555 701.818573c26.94010734-44.03091688 42.29352437-95.3040244 42.29352437-150.63308458 0-159.90257264-129.77622728-289.67812098-289.67879992-289.67812099S222.32120008 391.28291578 222.32120008 551.18548842c0 55.32906018 15.64264297 106.60216772 42.29352437 150.63308458l494.7705511 0z m-5.21421432-157.29546547c0 20.85685729-17.38071443 37.65844088-38.81670255 37.65844088s-38.81670255-16.80158358-38.81670256-37.65844088 17.38071443-37.65844088 38.81670256-37.65844088 38.81670255 16.80158358 38.81670255 37.65844088zM653.94272738 365.50174904c21.43598813 0 38.81670255 16.80158358 38.81670255 37.65844089s-17.38071443 37.65776195-38.81670255 37.65776194-38.81738149-16.80090464-38.81738149-37.65776194c-0.28922595-20.8568573 17.09148847-37.65844088 38.81738149-37.65844089z m-137.3076439-57.35635757c21.43598813 0 38.81670255 16.80158358 38.81670255 37.65844088s-17.38071443 37.65776195-38.81670255 37.65776195-38.81738149-16.80090464-38.81738148-37.65776195 17.38071443-37.65844088 38.81738148-37.65844088z m-5.79402409 240.43298978l32.15432167-119.92692948c2.60710716-10.13852377 13.32544071-16.51167869 23.75386935-13.61466664 10.13852377 2.60710716 16.51167869 13.32544071 13.61466665 23.75386935L547.63046456 561.03478623c13.03553581 10.42842865 21.72589302 26.65020246 21.72589301 44.61072665 0 31.5745119-25.49194079 57.06645269-57.06645268 57.06645268-31.57519084 0-57.06713163-25.49194079-57.06713163-57.06645268-0.28922595-31.28528595 24.62290507-56.48732185 55.61828613-57.06713163zM371.50611811 369.84692764c21.43598813 0 38.81670255 16.80158358 38.81670255 37.65844089s-17.38071443 37.65776195-38.81670255 37.65776194-38.81738149-16.80090464-38.81738148-37.65776194 17.38071443-37.65844088 38.81738148-37.65844089z m-59.09442902 136.72851307c21.43598813 0 38.81670255 16.80090464 38.81670255 37.65776194s-17.38071443 37.65844088-38.81670255 37.65844088-38.81738148-16.80158358-38.81738148-37.65844088c0-20.56695241 17.38071443-37.65776195 38.81738148-37.65776194zM759.38527555 701.818573L264.61472445 701.818573c4.92430943 8.11122637 10.13852377 15.64264297 15.64264297 23.17405958l463.48526516 0c5.50411921-7.5314166 10.71833353-15.0628332 15.64264297-23.17405958z" p-id="914" fill="#ffffff"></path></svg>