<?xml version="1.0" standalone="no"?><!DOCTYPE svg PUBLIC "-//W3C//DTD SVG 1.1//EN" "http://www.w3.org/Graphics/SVG/1.1/DTD/svg11.dtd"><svg t="1574504456951" class="icon" viewBox="0 0 1024 1024" version="1.1" xmlns="http://www.w3.org/2000/svg" p-id="800" xmlns:xlink="http://www.w3.org/1999/xlink" width="2000" height="2000"><defs><style type="text/css"></style></defs><path d="M276.62213879 587.52230841h469.91642175V444.86922309H276.62213879V587.52230841z m372.57672149-92.30487972c11.74775075 0 20.9785829 9.23034046 21.81739186 20.13928224 0 11.74775075-9.23034046 20.9785829-20.13928225 21.81739187s-20.97809121-9.23034046-21.81739186-20.13928223c0-11.74775075 9.23034046-21.81739187 20.13928224-21.81739188z m-67.13077692 0c8.3915315 0 15.94376233 5.03482057 19.29998159 12.5870514 3.35671093 7.55223083 1.67860132 16.78257131-4.1955199 22.65669252-5.87412121 5.87412121-15.10446169 7.55223083-22.65669253 5.03482057-7.55223083-3.35671093-13.42635205-10.90894177-13.42635206-19.2999816 0.83930065-11.74824244 10.06964111-20.9785829 20.9785829-20.97858289z m-238.31467596 0h117.47898251V537.1741028H343.7534074v-41.95667411zM711.29481662 260.25897198H312.7046917c-19.29998159 0-35.24374393 15.94376233-35.24374393 35.24374391v107.4093414h469.91642175V295.5027159C746.53806887 276.20273431 730.5947982 260.25897198 711.29432494 260.25897198zM461.23189822 352.56385169H343.75291571V310.60717758h117.47898252v41.95667411z m122.51380307 0c-7.55223083 0-15.10446169-3.35671093-19.29998156-10.06964112s-4.19601158-14.26516102-0.83930067-20.9785829 10.90894177-10.90845009 18.46117261-10.90845009c10.90845009 0 20.13928224 9.23034046 20.97809123 20.13928224 0.83930065 11.74775075-7.55223083 20.97809121-19.29998161 21.81739187z m67.13077693 0c-11.74775075 0-20.9785829-9.23034046-21.81739188-20.13928224 0-11.74775075 9.23034046-20.9785829 20.13928225-21.81739187 11.74775075 0 20.97809121 9.23034046 21.81739187 20.13928224 0 11.74775075-9.23034046 21.81739187-20.13928224 21.81739187zM311.86588271 621.0879427H276.62213879V738.56692522c0 14.26516102 10.90894177 25.1741028 25.17410281 25.17410281h419.56821615c13.42635205 0 25.1741028-10.90894177 25.17410279-25.17410281V621.0879427H311.86588271zM461.23238991 713.39282242H343.7534074v-41.95667411h117.47898251V713.39282242z m121.67499411 0c-11.74775075 0-20.9785829-9.23034046-20.9785829-20.9785829s9.23083215-20.97809121 20.9785829-20.97809121 20.9785829 9.23034046 20.97858289 20.97809121-9.23083215 20.9785829-20.97858289 20.9785829z m67.13077691 0c-11.74775075 0-20.9785829-9.23034046-20.9785829-20.9785829s9.23083215-20.97809121 20.9785829-20.97809121 20.9785829 9.23034046 20.9785829 20.97809121S661.78591167 713.39282242 650.03816093 713.39282242z" fill="#FFFFFF" p-id="801"></path></svg>