<?xml version="1.0" standalone="no"?><!DOCTYPE svg PUBLIC "-//W3C//DTD SVG 1.1//EN" "http://www.w3.org/Graphics/SVG/1.1/DTD/svg11.dtd"><svg t="1574592664844" class="icon" viewBox="0 0 1024 1024" version="1.1" xmlns="http://www.w3.org/2000/svg" p-id="814" xmlns:xlink="http://www.w3.org/1999/xlink" width="2000" height="2000"><defs><style type="text/css"></style></defs><path d="M759.44359889 363.15444595c10.03974687-37.29071315 14.34242062-109.00386513-51.63313377-119.04308755-54.50193257-5.7375976-117.60973707 28.68484122-150.59725203 51.63313377-10.04027134-1.43439939-22.94829254-2.86879881-34.42243882-2.8687988-86.0555726-1.43387494-141.99138007 27.25096628-190.75676399 90.35877081-17.21069495 22.94776807-32.98751495 61.67288064-38.72458809 104.70066692 24.38216749-41.59338689 98.96411827-117.60921261 176.41381892-147.72845322 0 0-119.04361201 84.62117319-176.41381892 205.09866013v1.4343994c-2.86879881 5.73707314-5.73707314 10.03974687-8.60534747 17.21121941-57.37073137 141.99138007-10.03974687 203.66426074 32.98803941 213.70453205 40.15898749 10.03974687 96.094795-8.60587193 140.55698071-57.37073136 76.01530127 17.2112194 152.03165142-2.86879881 179.28209325-17.21069494C690.59977018 674.38869689 727.88995887 621.32116372 736.49530634 568.25363056H591.63512745s-7.17147254 45.89606063-84.62117319 45.89606063c-71.71315198 0-76.01530127-83.1867738-76.01530124-83.18677378h309.79932707s5.73707314-90.35824634-38.72511257-150.59725204c-25.81656688-32.98803941-58.8046063-63.10728005-104.70066692-78.88410006 14.34242062-10.03974687 38.72511255-27.25096628 60.23900569-31.55364002 40.15898749-10.03974687 65.97555437-4.30267374 83.1867738 25.81656689 22.94829254 40.15898749-12.90802121 131.95163323-12.90802122 131.95163322s20.07949375-25.81656688 31.55364002-64.54167945z m-321.27399782 352.82763783c-61.6734051 50.19925883-111.87266393 44.46218569-131.95163322 14.34242063-17.2112194-27.25096628-20.08001821-73.14650246 0-137.68870637 10.03974687 24.38216749 24.38216749 48.76485943 45.89606065 70.27875257 25.81656688 25.81656688 55.93633195 43.02778628 86.05557257 53.06753317z m-2.86879879-259.6005927s2.86879881-60.2390057 67.41047824-64.54167943c57.3702069-5.73707314 86.0555726 20.07949375 94.66092008 67.40995377l-162.07139832-2.86879879z" fill="#ffffff" p-id="815"></path></svg>