<?xml version="1.0" standalone="no"?><!DOCTYPE svg PUBLIC "-//W3C//DTD SVG 1.1//EN" "http://www.w3.org/Graphics/SVG/1.1/DTD/svg11.dtd"><svg t="1574593419018" class="icon" viewBox="0 0 1024 1024" version="1.1" xmlns="http://www.w3.org/2000/svg" p-id="828" xmlns:xlink="http://www.w3.org/1999/xlink" width="2000" height="2000"><defs><style type="text/css"></style></defs><path d="M294.60763669 415.10767543l113.56317487 311.04002575C328.73253161 687.65929511 274.02081485 606.20708693 274.02081485 512c0-34.57243451 7.38440348-67.24282572 20.58682184-96.89232457z m378.05908164 84.92064013c0-29.42572903-10.51718073-49.78878111-19.57985774-65.67643709-12.08356934-19.57985773-23.38394438-36.25070803-23.38394437-55.83056578 0-21.92944067 16.5589654-42.29249271 39.94290977-42.29249271 1.00696412 0 2.01392822 0.1118849 3.13277723 0.22376981C630.37422562 297.62852902 573.98423533 273.90892994 512 273.90892994c-83.13048171 0-156.30320718 42.62814741-198.93135458 107.29762039 5.59424507 0.2237698 10.85283542 0.3356547 15.32823148 0.3356547 24.8384481 0 63.43873906-3.02089233 63.43873906-3.02089234 12.86676367-0.7831943 14.32126738 18.12535402 1.56638861 19.57985773 0 0-12.86676367 1.45450372-27.18803102 2.23769804l86.71079855 257.7828127L505.06313611 501.93035889l-37.03390234-101.59149043c-12.86676367-0.7831943-24.95033301-2.23769803-24.950333-2.23769804-12.86676367-0.7831943-11.30037504-20.36305203 1.45450372-19.57985774 0 0 39.27160038 3.02089233 62.65554475 3.02089235 24.8384481 0 63.43873906-3.02089233 63.43873906-3.02089235 12.86676367-0.7831943 14.32126738 18.12535402 1.56638863 19.57985774 0 0-12.86676367 1.45450372-27.18803103 2.23769804l86.03948913 255.88076939L654.76513412 576.89324278c10.06964111-32.89416098 17.90158422-56.50187518 17.90158421-76.86492723z m-156.52697699 32.78227608l-71.38256706 207.546492c21.37001616 6.26555447 43.85888133 9.73398641 67.24282572 9.73398643 27.74745553 0 54.26417715-4.81105076 78.99074035-13.53807307-0.67130941-1.00696412-1.2307339-2.12581313-1.67827352-3.24466214L516.13974134 532.81059165z m204.74936945-135.04507591c1.00696412 7.60817329 1.56638861 15.66388619 1.56638864 24.5027934 0 24.1671387-4.47539605 51.24328482-18.12535403 85.25629483l-72.72518587 210.23172962C702.42810208 676.47080498 749.97918515 599.82964755 749.97918515 512c0-41.39741348-10.51718073-80.33335916-29.09007434-114.23448427zM789.47455533 512c0 153.05854505-124.5278952 277.47455533-277.47455533 277.47455533-153.05854505 0-277.47455533-124.5278952-277.47455533-277.47455533C234.52544467 358.94145495 358.94145495 234.52544467 512 234.52544467c152.94666013 0 277.47455533 124.4160103 277.47455533 277.47455533z m-12.75487875 0c0-146.00979626-118.82176522-264.71967658-264.71967658-264.71967658C365.99020374 247.28032342 247.28032342 365.99020374 247.28032342 512S366.10208864 776.71967658 512 776.71967658c146.00979626 0 264.71967658-118.70988032 264.71967658-264.71967658z" fill="#ffffff" p-id="829"></path></svg>